
<svg width="12" height="12" viewBox="0 0 12 12" fill="none" xmlns="http://www.w3.org/2000/svg">
<g id="arrow-up 1">
<g id="Layer 47">
<path id="Vector" d="M0.528725 2.79749L5.77872 9.54749C5.80601 9.57953 5.83992 9.60525 5.87812 9.62289C5.91632 9.64054 5.9579 9.64967 5.99997 9.64967C6.04205 9.64967 6.08363 9.64054 6.12183 9.62289C6.16003 9.60525 6.19394 9.57953 6.22122 9.54749L11.4712 2.79749C11.504 2.75615 11.5243 2.7064 11.53 2.65397C11.5356 2.60155 11.5263 2.5486 11.5031 2.50124C11.4797 2.45405 11.4437 2.4143 11.3989 2.38648C11.3542 2.35865 11.3026 2.34386 11.25 2.34374H0.749975C0.697309 2.34386 0.645719 2.35865 0.601003 2.38648C0.556287 2.4143 0.520218 2.45405 0.49685 2.50124C0.473666 2.5486 0.464356 2.60155 0.469996 2.65397C0.475637 2.7064 0.495997 2.75615 0.528725 2.79749Z" fill="#FF3B30"/>
</g>
</g>
</svg>
