<svg width="24" height="24" viewBox="0 0 24 24" fill="none" xmlns="http://www.w3.org/2000/svg">
<path d="M12 22C6.47715 22 2 17.5228 2 12C2 9.20746 3.14465 6.68227 4.99037 4.86802M12 22C11.037 21.2864 11.1907 20.4555 11.6738 19.6247C12.4166 18.3474 12.4166 18.3474 12.4166 16.6444C12.4166 14.9414 13.4286 14.1429 17 14.8571C18.6047 15.1781 19.7741 12.9609 21.8573 13.693M12 22C16.9458 22 21.053 18.4096 21.8573 13.693M4.99037 4.86802C5.83966 4.95765 6.31517 5.41264 7.10496 6.24716C8.6044 7.83152 10.1038 7.96372 11.1035 7.4356C12.6029 6.64343 11.3429 5.3603 13.1027 4.66298C14.1816 4.23551 14.3872 3.11599 13.8766 2.17579M4.99037 4.86802C6.79495 3.09421 9.26969 2 12 2C12.6414 2 13.2687 2.06039 13.8766 2.17579M21.8573 13.693C21.9511 13.1427 22 12.5771 22 12C22 7.11857 18.5024 3.05405 13.8766 2.17579" stroke="#6A7282" stroke-width="2" stroke-linejoin="round"/>
</svg>
