<svg id="Layer_1" enable-background="new 0 0 512 512" viewBox="0 0 512 512" xmlns="http://www.w3.org/2000/svg" xmlns:xlink="http://www.w3.org/1999/xlink"><linearGradient id="lg1"><stop offset="0" stop-color="#62dbfb"/><stop offset=".1912" stop-color="#57d5fa"/><stop offset=".5232" stop-color="#3bc5f7"/><stop offset=".954" stop-color="#0dabf2"/><stop offset="1" stop-color="#08a9f1"/></linearGradient><linearGradient id="SVGID_1_" gradientUnits="userSpaceOnUse" x1="170.521" x2="333.164" xlink:href="#lg1" y1="197.584" y2="483.17"/><linearGradient id="lg2"><stop offset="0" stop-color="#0593fc" stop-opacity="0"/><stop offset=".6831" stop-color="#0389fc" stop-opacity=".683"/><stop offset="1" stop-color="#0182fc"/></linearGradient><linearGradient id="SVGID_00000148644204774434108520000012189224182921531269_" gradientUnits="userSpaceOnUse" x1="256" x2="256" xlink:href="#lg2" y1="455.176" y2="502.869"/><linearGradient id="SVGID_00000135685055594826139700000001511984668018422418_" gradientUnits="userSpaceOnUse" x1="378.106" x2="458.654" xlink:href="#lg2" y1="347.677" y2="347.677"/><linearGradient id="SVGID_00000071537440489572041060000013252407348441550519_" gradientUnits="userSpaceOnUse" x1="256" x2="256" xlink:href="#lg2" y1="315.992" y2="245.149"/><linearGradient id="SVGID_00000119840096216496639630000007521068577985968556_" gradientUnits="userSpaceOnUse" x1="256" x2="256" xlink:href="#lg1" y1="141.177" y2="183.424"/><linearGradient id="SVGID_00000178182284071077363360000012584838295614086285_" gradientUnits="userSpaceOnUse" x1="379.955" x2="469.807" xlink:href="#lg2" y1="188.548" y2="188.548"/><linearGradient id="SVGID_00000136373098971245617060000000468349871015479973_" gradientUnits="userSpaceOnUse" x1="256" x2="256" xlink:href="#lg2" y1="212.687" y2="249.47"/><linearGradient id="SVGID_00000101819847620547246190000008465642828948932767_" gradientUnits="userSpaceOnUse" x1="362.731" x2="305.035" xlink:href="#lg2" y1="316.793" y2="316.793"/><linearGradient id="SVGID_00000106837187277022360180000011587105897277410733_" gradientUnits="userSpaceOnUse" x1="281.05" x2="278.585" xlink:href="#lg2" y1="200.874" y2="135.782"/><linearGradient id="lg3"><stop offset="0" stop-color="#fef0ae"/><stop offset="1" stop-color="#fbc56d"/></linearGradient><linearGradient id="SVGID_00000049210974101841843740000017169634524886592668_" gradientUnits="userSpaceOnUse" x1="222.56" x2="295.898" xlink:href="#lg3" y1="316.793" y2="316.793"/><linearGradient id="lg4"><stop offset="0" stop-color="#dc8758" stop-opacity="0"/><stop offset=".2153" stop-color="#dd8654" stop-opacity=".215"/><stop offset=".4291" stop-color="#e28448" stop-opacity=".429"/><stop offset=".6424" stop-color="#ea8034" stop-opacity=".642"/><stop offset=".8543" stop-color="#f47b18" stop-opacity=".854"/><stop offset="1" stop-color="#fe7701"/></linearGradient><linearGradient id="SVGID_00000178162706779382990670000012771853842175529143_" gradientUnits="userSpaceOnUse" x1="256" x2="256" xlink:href="#lg4" y1="478.364" y2="510.384"/><linearGradient id="SVGID_00000156555503526257561340000011236597018405011590_" gradientUnits="userSpaceOnUse" x1="284.324" x2="311.692" xlink:href="#lg4" y1="316.793" y2="316.793"/><linearGradient id="SVGID_00000040573352556069083320000013724831296135841927_" gradientUnits="userSpaceOnUse" x1="256" x2="256" xlink:href="#lg4" y1="201.806" y2="153.932"/><linearGradient id="SVGID_00000062881533389395880480000015247941692000656555_" gradientUnits="userSpaceOnUse" x1="135.078" x2="146.629" xlink:href="#lg3" y1="41.64" y2="128.687"/><linearGradient id="SVGID_00000137101783287204573560000001790661732718599086_" gradientUnits="userSpaceOnUse" x1="147.292" x2="52.407" xlink:href="#lg4" y1="93.839" y2="71.975"/><linearGradient id="SVGID_00000124841865857925419340000012657830582289649552_" gradientUnits="userSpaceOnUse" x1="77.465" x2="177.026" xlink:href="#lg3" y1="53.162" y2="119.719"/><linearGradient id="SVGID_00000055685118939892465140000017213721052041805205_" gradientUnits="userSpaceOnUse" x1="155.914" x2="155.914" xlink:href="#lg4" y1="110.4" y2="150.298"/><linearGradient id="SVGID_00000134249341603996090740000008816222111149917068_" gradientTransform="matrix(-1 0 0 1 583.753 0)" gradientUnits="userSpaceOnUse" x1="206.831" x2="218.382" xlink:href="#lg3" y1="41.64" y2="128.687"/><linearGradient id="SVGID_00000014614233876706217260000003571205737993464716_" gradientTransform="matrix(-1 0 0 1 583.753 0)" gradientUnits="userSpaceOnUse" x1="219.045" x2="124.16" xlink:href="#lg4" y1="93.839" y2="71.975"/><linearGradient id="SVGID_00000040552411103779670510000015918193750054130866_" gradientUnits="userSpaceOnUse" x1="333.696" x2="413.089" xlink:href="#lg3" y1="70.794" y2="140.817"/><linearGradient id="SVGID_00000106864778221160137080000004312931920636035988_" gradientUnits="userSpaceOnUse" x1="420.36" x2="453.399" xlink:href="#lg4" y1="70.366" y2="63.462"/><linearGradient id="SVGID_00000032618392766342139280000006672293196236460721_" gradientTransform="matrix(-1 0 0 1 583.753 0)" gradientUnits="userSpaceOnUse" x1="227.668" x2="227.668" xlink:href="#lg4" y1="110.4" y2="150.298"/><linearGradient id="SVGID_00000034072919077467636520000003052602693664988824_" gradientUnits="userSpaceOnUse" x1="347.918" x2="309.085" xlink:href="#lg4" y1="93.437" y2="103.053"/><linearGradient id="SVGID_00000132054829805233024620000010993553673788931997_" gradientUnits="userSpaceOnUse" x1="244.801" x2="268.471" xlink:href="#lg3" y1="99.334" y2="146.674"/><linearGradient id="SVGID_00000134952798488082722600000012720324782228710829_" gradientUnits="userSpaceOnUse" x1="279.484" x2="248.417" xlink:href="#lg4" y1="117.082" y2="81.207"/><linearGradient id="SVGID_00000039847174858275815210000009029313312097412786_" gradientUnits="userSpaceOnUse" x1="292.3" x2="318.189" xlink:href="#lg4" y1="119.056" y2="116.837"/><linearGradient id="SVGID_00000055703611929446103540000007700108234504294800_" gradientUnits="userSpaceOnUse" x1="238.908" x2="249.263" xlink:href="#lg4" y1="137.657" y2="165.395"/><linearGradient id="SVGID_00000053506035772224135590000003790122472594412160_" gradientUnits="userSpaceOnUse" x1="256" x2="256" xlink:href="#lg4" y1="133.754" y2="160.753"/><g><g><g><path d="m437.332 506.805h-362.664c-12.326 0-22.318-9.992-22.318-22.318v-273.621c0-12.326 9.992-22.318 22.318-22.318h362.663c12.326 0 22.318 9.992 22.318 22.318v273.621c.001 12.326-9.991 22.318-22.317 22.318z" fill="url(#SVGID_1_)"/><path d="m52.35 364.711v119.776c0 12.326 9.992 22.318 22.318 22.318h362.663c12.326 0 22.318-9.992 22.318-22.318v-119.776z" fill="url(#SVGID_00000148644204774434108520000012189224182921531269_)"/><path d="m437.332 188.548h-189.987v318.258h189.986c12.326 0 22.318-9.992 22.318-22.318v-273.622c.001-12.326-9.991-22.318-22.317-22.318z" fill="url(#SVGID_00000135685055594826139700000001511984668018422418_)"/><path d="m437.332 188.548h-362.664c-12.326 0-22.318 9.992-22.318 22.318v127.807h407.3v-127.807c0-12.326-9.992-22.318-22.318-22.318z" fill="url(#SVGID_00000071537440489572041060000013252407348441550519_)"/></g><g><path d="m426.701 126.781h-341.402c-4.207 0-8.287 1.442-11.56 4.085l-8.682 7.012c-15.764 12.731-24.926 31.907-24.926 52.17v41.868c0 10.161 8.237 18.399 18.399 18.399h394.94c10.161 0 18.399-8.237 18.399-18.399v-41.868c0-20.263-9.162-39.439-24.926-52.17l-8.682-7.012c-3.273-2.643-7.353-4.085-11.56-4.085z" fill="url(#SVGID_00000119840096216496639630000007521068577985968556_)"/><path d="m446.943 137.878-8.682-7.012c-3.273-2.643-7.353-4.085-11.56-4.085h-216.549v123.534h243.318c10.161 0 18.399-8.237 18.399-18.399v-41.868c0-20.263-9.162-39.439-24.926-52.17z" fill="url(#SVGID_00000178182284071077363360000012584838295614086285_)"/><path d="m40.131 201.812v30.103c0 10.161 8.237 18.399 18.399 18.399h394.94c10.161 0 18.399-8.237 18.399-18.399v-30.103z" fill="url(#SVGID_00000136373098971245617060000000468349871015479973_)"/></g></g><path d="m272.489 506.805h161.252v-378.607c-2.218-.919-4.605-1.417-7.04-1.417h-154.212z" fill="url(#SVGID_00000101819847620547246190000008465642828948932767_)"/><path d="m446.943 137.878-8.682-7.012c-3.273-2.643-7.353-4.085-11.56-4.085h-328.118l-11.192 11.192 363.907 363.908c5.088-4.091 8.351-10.357 8.351-17.393v-235.26c7.116-2.542 12.219-9.322 12.219-17.312v-41.868c.001-20.263-9.161-39.439-24.925-52.17z" fill="url(#SVGID_00000106837187277022360180000011587105897277410733_)"/><g><path d="m313.173 192.808v309.947c0 5.106-4.139 9.245-9.245 9.245h-95.856c-5.106 0-9.245-4.139-9.245-9.245v-309.947c0-22.807 2.428-44.4 6.599-58.729l2.303-7.896c.861-2.978 1.951-4.597 3.061-4.597h90.418c1.11 0 2.2 1.619 3.061 4.597l2.303 7.896c4.173 14.33 6.601 35.923 6.601 58.729z" fill="url(#SVGID_00000049210974101841843740000017169634524886592668_)"/><path d="m198.827 402.176v100.579c0 5.106 4.139 9.245 9.245 9.245h95.856c5.106 0 9.245-4.139 9.245-9.245v-100.579z" fill="url(#SVGID_00000178162706779382990670000012771853842175529143_)"/><path d="m304.27 126.183c-.861-2.978-1.951-4.597-3.061-4.597h-62.006v390.414h64.725c5.106 0 9.245-4.139 9.245-9.245v-309.947c0-22.807-2.428-44.4-6.599-58.729z" fill="url(#SVGID_00000156555503526257561340000011236597018405011590_)"/><path d="m304.27 126.183c-.861-2.978-1.951-4.597-3.061-4.597h-90.418c-1.11 0-2.2 1.619-3.061 4.597l-2.303 7.896c-4.171 14.33-6.599 35.922-6.599 58.729v103.677h114.346v-103.677c0-22.807-2.428-44.4-6.599-58.729z" fill="url(#SVGID_00000040573352556069083320000013724831296135841927_)"/></g><g><g><path d="m214.512 114.151v19.971c0 2.127-1.724 3.851-3.851 3.851h-89.426c-15.182 0-29.209-8.103-36.794-21.254l-7.257-12.583c-6.894-11.953-8.312-26.293-3.894-39.365l11.187-33.096c.36-1.065 1.167-1.919 2.21-2.339 2.663-1.072 5.505 1.04 5.265 3.9-1.786 21.257 6.078 42.606 22.086 57.688 6.609 6.215 14.271 11.065 22.546 14.352 8.287 3.287 17.188 5.023 26.25 5.023h47.827c2.127 0 3.851 1.725 3.851 3.852z" fill="url(#SVGID_00000062881533389395880480000015247941692000656555_)"/><path d="m214.512 114.151v19.971c0 2.127-1.724 3.851-3.851 3.851h-89.426c-15.182 0-29.209-8.103-36.794-21.254l-7.257-12.583c-6.894-11.953-8.312-26.293-3.894-39.365l11.187-33.096c.36-1.065 1.167-1.919 2.21-2.339 2.663-1.072 5.505 1.04 5.265 3.9-1.786 21.257 6.078 42.606 22.086 57.688 6.609 6.215 14.271 11.065 22.546 14.352 8.287 3.287 17.188 5.023 26.25 5.023h47.827c2.127 0 3.851 1.725 3.851 3.852z" fill="url(#SVGID_00000137101783287204573560000001790661732718599086_)"/><path d="m132.828 15.116c-15.833-23.345-51.516-18.785-61.158 7.72l-11.551 31.701c-9.722 26.69-2.627 56.609 18.044 76.088 6.609 6.215 14.271 11.065 22.546 14.352 8.287 3.287 17.188 5.023 26.25 5.023h129.041v-43.067c-32.801-8.958-82.662-32.083-123.172-91.817zm-14.889 117.283c-5.25 0-10.407-1.006-15.208-2.91-4.794-1.904-9.234-4.714-13.063-8.315-11.976-11.286-16.087-28.62-10.454-44.083l6.692-18.367c5.586-15.356 28.057-19.056 35.433-4.473 20.322 40.184 55.148 61.205 79.238 71.36 3.557 1.5 2.501 6.788-1.359 6.788z" fill="url(#SVGID_00000124841865857925419340000012657830582289649552_)"/><path d="m200.577 125.611c3.557 1.5 2.501 6.788-1.359 6.788h-81.279c-5.25 0-10.407-1.006-15.208-2.91-4.794-1.904-9.234-4.714-13.063-8.315-11.757-11.079-15.91-27.982-10.73-43.227h-23.104c-.252 19.564 7.579 38.78 22.329 52.679 6.609 6.215 14.271 11.065 22.546 14.352 8.287 3.287 17.188 5.023 26.25 5.023h129.041v-43.067c-17.185-4.693-39.054-13.289-61.806-28.987h-57.709c19.891 25.161 45.269 39.729 64.092 47.664z" fill="url(#SVGID_00000055685118939892465140000017213721052041805205_)"/></g><g><path d="m297.488 114.151v19.971c0 2.127 1.724 3.851 3.851 3.851h89.426c15.182 0 29.209-8.103 36.794-21.254l7.257-12.583c6.893-11.953 8.312-26.293 3.894-39.365l-11.187-33.096c-.36-1.065-1.167-1.919-2.21-2.339-2.663-1.072-5.505 1.04-5.265 3.9 1.786 21.257-6.078 42.606-22.086 57.688-6.609 6.215-14.271 11.065-22.546 14.352-8.287 3.287-17.188 5.023-26.25 5.023h-47.827c-2.127 0-3.851 1.725-3.851 3.852z" fill="url(#SVGID_00000134249341603996090740000008816222111149917068_)"/><path d="m297.488 114.151v19.971c0 2.127 1.724 3.851 3.851 3.851h89.426c15.182 0 29.209-8.103 36.794-21.254l7.257-12.583c6.893-11.953 8.312-26.293 3.894-39.365l-11.187-33.096c-.36-1.065-1.167-1.919-2.21-2.339-2.663-1.072-5.505 1.04-5.265 3.9 1.786 21.257-6.078 42.606-22.086 57.688-6.609 6.215-14.271 11.065-22.546 14.352-8.287 3.287-17.188 5.023-26.25 5.023h-47.827c-2.127 0-3.851 1.725-3.851 3.852z" fill="url(#SVGID_00000014614233876706217260000003571205737993464716_)"/><path d="m256 106.934v43.067h129.04c9.062 0 17.963-1.736 26.25-5.023 8.275-3.287 15.938-8.137 22.546-14.352 20.671-19.479 27.766-49.398 18.044-76.088l-11.55-31.702c-9.641-26.505-45.324-31.065-61.158-7.72-40.51 59.734-90.371 82.859-123.172 91.818zm56.782 25.465c-3.86 0-4.916-5.289-1.359-6.788 24.091-10.155 58.916-31.175 79.238-71.36 7.375-14.584 29.847-10.883 35.433 4.473l6.692 18.367c5.633 15.463 1.522 32.798-10.454 44.083-3.829 3.601-8.268 6.411-13.063 8.315-4.801 1.905-9.958 2.91-15.208 2.91z" fill="url(#SVGID_00000040552411103779670510000015918193750054130866_)"/><path d="m440.33 22.836c-9.641-26.505-45.325-31.065-61.158-7.72-10.816 15.949-22.3 29.266-33.947 40.422v51.166c16.74-12.049 33.563-28.976 45.436-52.453 7.376-14.584 29.847-10.883 35.433 4.473l6.692 18.367c5.633 15.463 1.522 32.798-10.454 44.083-3.829 3.601-8.268 6.411-13.063 8.315-4.801 1.904-9.958 2.91-15.208 2.91h-48.836v17.602h39.815c9.062 0 17.963-1.736 26.25-5.023 8.275-3.287 15.938-8.137 22.546-14.352 20.672-19.479 27.766-49.398 18.044-76.088z" fill="url(#SVGID_00000106864778221160137080000004312931920636035988_)"/><path d="m311.423 125.611c-3.557 1.5-2.501 6.788 1.359 6.788h81.279c5.25 0 10.407-1.006 15.208-2.91 4.794-1.904 9.234-4.714 13.063-8.315 11.757-11.079 15.91-27.982 10.73-43.227h23.103c.252 19.564-7.579 38.78-22.329 52.679-6.609 6.215-14.271 11.065-22.546 14.352-8.287 3.287-17.188 5.023-26.25 5.023h-129.04v-43.067c17.185-4.693 39.054-13.289 61.806-28.987h57.709c-19.891 25.161-45.269 39.729-64.092 47.664z" fill="url(#SVGID_00000032618392766342139280000006672293196236460721_)"/></g></g><path d="m372.262 132.399h-59.48c-3.86 0-4.917-5.289-1.359-6.788 17.813-7.509 41.49-20.97 60.839-43.715v-57.079c-39.148 52.568-85.302 73.661-116.262 82.117v43.067h116.262z" fill="url(#SVGID_00000034072919077467636520000003052602693664988824_)"/><g><path d="m293.915 77.947c-11.395 0-25.524 4.91-37.915 13.102-12.39-8.192-26.52-13.102-37.915-13.102-26.433 0-28.133 26.404-28.133 58.974 0 20.506 37.939 28.097 66.048 22.782 28.109 5.315 66.048-2.276 66.048-22.782 0-32.57-1.7-58.974-28.133-58.974z" fill="url(#SVGID_00000132054829805233024620000010993553673788931997_)"/><g><path d="m322.044 136.925c0 20.503-37.935 28.099-66.044 22.786 16.54-3.123 29.676-10.719 29.676-22.786 0-18.532-13.323-35.061-29.676-45.873 12.389-8.197 26.511-13.105 37.915-13.105 26.428 0 28.129 26.407 28.129 58.978z" fill="url(#SVGID_00000134952798488082722600000012720324782228710829_)"/></g><g><path d="m322.044 136.925c0 20.503-37.935 28.099-66.044 22.786 16.54-3.123 29.676-10.719 29.676-22.786 0-18.532-13.323-35.061-29.676-45.873 12.389-8.197 26.511-13.105 37.915-13.105 26.428 0 28.129 26.407 28.129 58.978z" fill="url(#SVGID_00000039847174858275815210000009029313312097412786_)"/></g><path d="m285.676 136.925c0 12.057-13.116 19.652-29.645 22.776h-.031c-28.109 5.313-66.044-2.272-66.044-22.776 0-32.571 1.702-58.978 28.13-58.978 11.393 0 25.525 4.908 37.915 13.105 16.352 10.812 29.675 27.341 29.675 45.873z" fill="url(#SVGID_00000055703611929446103540000007700108234504294800_)"/></g><path d="m322.044 136.925c0 20.503-37.935 28.088-66.044 22.776-28.109 5.313-66.044-2.272-66.044-22.776 0-6.018.062-11.818.322-17.276h131.445c.259 5.458.321 11.258.321 17.276z" fill="url(#SVGID_00000053506035772224135590000003790122472594412160_)"/></g><g/><g/><g/><g/><g/><g/><g/><g/><g/><g/><g/><g/><g/><g/><g/></svg>