<svg width="20" height="20" viewBox="0 0 20 20" fill="none" xmlns="http://www.w3.org/2000/svg">
<path d="M13.3333 18.3333H15C15.442 18.3333 15.866 18.1577 16.1785 17.8452C16.4911 17.5326 16.6667 17.1087 16.6667 16.6667V5.83334L12.5 1.66667H5C4.55798 1.66667 4.13405 1.84227 3.82149 2.15483C3.50893 2.46739 3.33334 2.89131 3.33334 3.33334V5.83334" stroke="#CBD5E1" stroke-width="1.5" stroke-linecap="round" stroke-linejoin="round"/>
<path d="M11.6667 1.66667V5.00001C11.6667 5.44203 11.8423 5.86596 12.1548 6.17852C12.4674 6.49108 12.8913 6.66667 13.3333 6.66667H16.6667" stroke="#CBD5E1" stroke-width="1.5" stroke-linecap="round" stroke-linejoin="round"/>
<path d="M6.66666 18.3333C9.42809 18.3333 11.6667 16.0948 11.6667 13.3333C11.6667 10.5719 9.42809 8.33333 6.66666 8.33333C3.90524 8.33333 1.66666 10.5719 1.66666 13.3333C1.66666 16.0948 3.90524 18.3333 6.66666 18.3333Z" stroke="#CBD5E1" stroke-width="1.5" stroke-linecap="round" stroke-linejoin="round"/>
<path d="M7.91666 14.5833L6.66666 13.5417V11.6667" stroke="#CBD5E1" stroke-width="1.5" stroke-linecap="round" stroke-linejoin="round"/>
</svg>
