<svg xmlns="http://www.w3.org/2000/svg" width="16" height="16" viewBox="0 0 16 16" fill="none">
<path d="M13.3333 4.66675H7.33331" stroke="#2A91FF" stroke-width="1.5" stroke-linecap="round" stroke-linejoin="round"/>
<path d="M9.33331 11.3333H3.33331" stroke="#2A91FF" stroke-width="1.5" stroke-linecap="round" stroke-linejoin="round"/>
<path d="M11.3333 13.3333C12.4379 13.3333 13.3333 12.4378 13.3333 11.3333C13.3333 10.2287 12.4379 9.33325 11.3333 9.33325C10.2287 9.33325 9.33331 10.2287 9.33331 11.3333C9.33331 12.4378 10.2287 13.3333 11.3333 13.3333Z" stroke="#2A91FF" stroke-width="1.5" stroke-linecap="round" stroke-linejoin="round"/>
<path d="M4.66669 6.66675C5.77126 6.66675 6.66669 5.77132 6.66669 4.66675C6.66669 3.56218 5.77126 2.66675 4.66669 2.66675C3.56212 2.66675 2.66669 3.56218 2.66669 4.66675C2.66669 5.77132 3.56212 6.66675 4.66669 6.66675Z" stroke="#2A91FF" stroke-width="1.5" stroke-linecap="round" stroke-linejoin="round"/>
</svg>