<svg xmlns="http://www.w3.org/2000/svg" width="16" height="16" viewBox="0 0 16 16" fill="none">
<path d="M10.6667 14.6666H12C12.3536 14.6666 12.6928 14.5261 12.9428 14.2761C13.1929 14.026 13.3334 13.6869 13.3334 13.3333V4.66659L10 1.33325H4.00002C3.6464 1.33325 3.30726 1.47373 3.05721 1.72378C2.80716 1.97382 2.66669 2.31296 2.66669 2.66659V4.66659" stroke="#2A91FF" stroke-width="1.5" stroke-linecap="round" stroke-linejoin="round"/>
<path d="M9.33331 1.33325V3.99992C9.33331 4.35354 9.47379 4.69268 9.72384 4.94273C9.97389 5.19278 10.313 5.33325 10.6666 5.33325H13.3333" stroke="#2A91FF" stroke-width="1.5" stroke-linecap="round" stroke-linejoin="round"/>
<path d="M5.33331 14.6667C7.54245 14.6667 9.33331 12.8759 9.33331 10.6667C9.33331 8.45761 7.54245 6.66675 5.33331 6.66675C3.12417 6.66675 1.33331 8.45761 1.33331 10.6667C1.33331 12.8759 3.12417 14.6667 5.33331 14.6667Z" stroke="#2A91FF" stroke-width="1.5" stroke-linecap="round" stroke-linejoin="round"/>
<path d="M6.33331 11.6666L5.33331 10.8333V9.33325" stroke="#2A91FF" stroke-width="1.5" stroke-linecap="round" stroke-linejoin="round"/>
</svg>