<?xml version="1.0" encoding="utf-8"?>
<!-- Svg Vector Icons : http://www.onlinewebfonts.com/icon -->
<!DOCTYPE svg PUBLIC "-//W3C//DTD SVG 1.1//EN" "http://www.w3.org/Graphics/SVG/1.1/DTD/svg11.dtd">
<svg version="1.1" xmlns="http://www.w3.org/2000/svg" xmlns:xlink="http://www.w3.org/1999/xlink" x="0px" y="0px" viewBox="0 0 256 256" enable-background="new 0 0 256 256" xml:space="preserve">
<metadata> Svg Vector Icons : http://www.onlinewebfonts.com/icon </metadata>
<g><g><path fill="#000000" d="M93.1,233H22.7V22.5h158.2V57c0,3.5,2.8,6.3,6.3,6.3c3.5,0,6.3-2.8,6.3-6.3V22.4c0-7-5.7-12.6-12.6-12.6H22.6c-7,0-12.6,5.7-12.6,12.6V233c0,7,5.7,12.6,12.6,12.6h70.5c3.5,0,6.3-2.8,6.3-6.3C99.5,235.8,96.6,233,93.1,233z"/><path fill="#000000" d="M162,62.3c0-3.5-2.8-6.3-6.3-6.3H49.3c-3.5,0-6.3,2.8-6.3,6.3s2.8,6.3,6.3,6.3h106.4C159.2,68.6,162,65.8,162,62.3z"/><path fill="#000000" d="M101.7,108.1c0-3.5-2.8-6.3-6.3-6.3H49.3c-3.5,0-6.3,2.8-6.3,6.3c0,3.5,2.8,6.3,6.3,6.3h46.1C98.9,114.4,101.7,111.6,101.7,108.1z"/><path fill="#000000" d="M78,147.6H49.3c-3.5,0-6.3,2.8-6.3,6.3c0,3.5,2.8,6.3,6.3,6.3H78c3.5,0,6.3-2.8,6.3-6.3C84.3,150.4,81.5,147.6,78,147.6z"/><path fill="#000000" d="M78,193.3H49.3c-3.5,0-6.3,2.8-6.3,6.3c0,3.5,2.8,6.3,6.3,6.3H78c3.5,0,6.3-2.8,6.3-6.3C84.3,196.2,81.5,193.3,78,193.3z"/><path fill="#000000" d="M142.6,139.2c0,16,11.4,28,19.6,34.5c-8.1,6.5-19.6,18.5-19.6,34.5v6.3h61.3v-6.3c0-16-11.4-28-19.6-34.5c8.1-6.5,19.6-18.5,19.6-34.5v-6.3h-61.3V139.2z M190.2,202h-34c3-9.8,12.1-17.2,17-20.6c2,1.4,4.9,3.6,7.7,6.4C185.7,192.4,188.8,197.2,190.2,202z M190.2,145.6c-3,9.8-12.1,17.2-17,20.6c-4.9-3.4-14-10.9-17-20.6H190.2z"/><path fill="#000000" d="M224.5,121.1c-13.8-13.8-32.2-21.5-51.8-21.5s-38,7.6-51.8,21.5c-13.8,13.8-21.5,32.2-21.5,51.8s7.6,38,21.5,51.8c13.8,13.8,32.2,21.5,51.8,21.5s38-7.6,51.8-21.5c13.8-13.8,21.5-32.2,21.5-51.8S238.4,134.9,224.5,121.1z M172.7,233.5c-33.4,0-60.6-27.2-60.6-60.6c0-33.4,27.2-60.6,60.6-60.6s60.6,27.2,60.6,60.6C233.3,206.3,206.1,233.5,172.7,233.5z"/></g></g>
</svg>