<svg version="1.2" xmlns="http://www.w3.org/2000/svg" viewBox="0 0 65 65" width="65" height="65"><style></style><path  d="m20.8 0h2.6v7.8h-2.6z"/><path  d="m26 0h2.6v2.6h-2.6z"/><path  d="m31.2 0h10.4v10.4h2.6v2.6h-10.4v-2.6h5.2v-5.2h-2.6v-2.6h-2.6v2.6h-2.6z"/><path  d="m0 0v18.2h18.2v-18.2zm15.6 15.6h-13v-13h13z"/><path  d="m46.8 0v18.2h18.2v-18.2zm15.6 15.6h-13v-13h13z"/><path  d="m5.2 5.2h7.8v7.8h-7.8z"/><path  d="m28.6 5.2h2.6v2.6h-2.6z"/><path  d="m52 5.2h7.8v7.8h-7.8z"/><path  d="m23.4 7.8h5.2v2.6h-2.6v2.6h2.6v5.2h2.6v5.2h-2.6v-2.6h-2.6v-5.2h-2.6v5.2h2.6v2.6h-5.2v-10.4h2.6z"/><path  d="m31.2 15.6h2.6v2.6h-2.6z"/><path  d="m36.4 15.6h2.6v2.6h-2.6z"/><path  d="m41.6 15.6h2.6v2.6h-2.6z"/><path  d="m5.2 20.8h7.8v2.6h2.6v2.6h-2.6v2.6h-2.6v-5.2h-5.2z"/><path  d="m15.6 20.8h2.6v2.6h-2.6z"/><path  d="m33.8 20.8h2.6v2.6h-2.6z"/><path  d="m39 20.8h2.6v5.2h-2.6z"/><path  d="m44.2 20.8h7.8v5.2h-2.6v-2.6h-5.2z"/><path  d="m57.2 20.8h7.8v2.6h-5.2v2.6h5.2v7.8h-7.8v-2.6h2.6v-2.6h-5.2v-2.6h2.6z"/><path  d="m18.2 23.4h2.6v5.2h5.2v-5.2h2.6v2.6h7.8v2.6h-7.8v2.6h-5.2v2.6h-13v2.6h-2.6v-7.8h2.6v2.6h7.8v-2.6h-2.6v-2.6h2.6z"/><path  d="m5.2 26h2.6v2.6h-2.6z"/><path  d="m41.6 26h2.6v2.6h-2.6z"/><path  d="m0 28.6h5.2v5.2h-2.6v10.4h-2.6z"/><path  d="m36.4 28.6h2.6v2.6h-2.6z"/><path  d="m31.2 31.2h5.2v5.2h-2.6v-2.6h-2.6z"/><path  d="m41.6 31.2h2.6v2.6h-2.6z"/><path  d="m54.6 33.8h2.6v2.6h-2.6z"/><path  d="m5.2 36.4h2.6v2.6h5.2v2.6h-2.6v2.6h-2.6v-2.6h-2.6z"/><path  d="m15.6 36.4h2.6v2.6h-2.6z"/><path  d="m57.2 36.4h7.8v7.8h-2.6v-5.2h-5.2z"/><path  d="m54.6 41.6v-5.2h-2.6v-2.6h-2.6v-2.6h2.6v2.6h2.6v-5.2h-5.2v-2.6h-2.6v2.6h-2.6v2.6h2.6v5.2h2.6v5.2h-7.8v-2.6h5.2v-2.6h-5.2v-2.6h-2.6v2.6h-2.6v5.2h-2.6v2.6h-2.6v-2.6h2.6v-5.2h-2.6v2.6h-2.6v-2.6h2.6v-2.6h-7.8v2.6h2.6v2.6h-7.8v2.6h-5.2v2.6h7.8v-2.6h7.8v2.6h-7.8v2.6h5.2v2.6h-2.6v2.6h-2.6v7.8h2.6v-2.6h2.6v-5.2h2.6v-2.6h2.6v-2.6h5.2v-2.6h2.6v5.2h2.6v5.2h-2.6v-5.2h-5.2v2.6h-5.2v5.2h2.6v-2.6h5.2v2.6h5.2v2.6h2.6v-2.6h2.6v-2.6h5.2v2.6h5.2v-2.6h-2.6v-2.6h2.6v-2.6h-2.6v-2.6h2.6v-2.6h2.6v-2.6zm-2.6 10.4h-7.8v-7.8h7.8z"/><path  d="m59.8 44.2h2.6v2.6h2.6v2.6h-5.2z"/><path  d="m46.8 46.8h2.6v2.6h-2.6z"/><path  d="m0 46.8v18.2h18.2v-18.2zm15.6 15.6h-13v-13h13z"/><path  d="m5.2 52h7.8v7.8h-7.8z"/><path  d="m57.2 52h2.6v2.6h-2.6z"/><path  d="m62.4 54.6h2.6v10.4h-10.4v-2.6h7.8z"/><path  d="m31.2 57.2h5.2v2.6h-5.2z"/><path  d="m46.8 57.2h5.2v2.6h2.6v2.6h-5.2v2.6h-5.2v-2.6h2.6z"/><path  d="m57.2 57.2h2.6v2.6h-2.6z"/><path  d="m28.6 59.8h2.6v2.6h-2.6z"/><path  d="m36.4 62.4h5.2v2.6h-5.2z"/></svg>