<?xml version="1.0" encoding="UTF-8"?>
<svg xmlns="http://www.w3.org/2000/svg" id="Layer_1" data-name="Layer 1" viewBox="0 0 24 24">
  <path d="m8.002,13.332c-.963-.991-1.559-2.341-1.559-3.832,0-3.038,2.462-5.5,5.5-5.5s5.5,2.462,5.5,5.5c0,.521-.077,1.023-.212,1.5h-2.354c-.718-.836-1.769-1.377-2.96-1.377-2.097,0-3.794,1.643-3.916,3.709Zm-3.448-5.127c.274-1.593,1.053-3.045,2.261-4.178,1.529-1.433,3.531-2.141,5.63-2.011,3.953.256,7.044,3.719,6.998,7.865-.019,1.736-1.473,3.118-3.208,3.118h-2.406c-.244-.829-1.002-1.439-1.91-1.439-1.105,0-2,.895-2,2s.895,2,2,2c.538,0,1.025-.215,1.384-.561h2.932c2.819,0,5.168-2.245,5.208-5.063C21.517,4.715,17.595.345,12.574.021c-2.664-.173-5.191.732-7.126,2.548-1.499,1.405-2.496,3.265-2.855,5.266-.109.608.372,1.166.989,1.166.472,0,.893-.329.972-.795Zm12.112,10.221l-1.868,2.647c-.355.532-1.136.532-1.491,0l-1.254-1.882-1.254,1.882c-.355.532-1.136.532-1.491,0l-1.857-2.786c-1.618,1.003-2.873,2.528-3.461,4.415-.095.304-.04.635.149.891s.488.407.806.407h14c.318,0,.617-.151.806-.407s.244-.587.149-.891c-.561-1.799-1.725-3.272-3.233-4.276Z"/>
</svg>
