<svg id="flat_color" height="512" viewBox="0 0 512 512" width="512" xmlns="http://www.w3.org/2000/svg" data-name="flat color"><path d="m366.85 0h-247.61a26.49 26.49 0 0 0 -26.49 26.48v459a26.49 26.49 0 0 0 26.49 26.52h366.28a26.49 26.49 0 0 0 26.48-26.48v-348.64a26.49 26.49 0 0 0 -8.44-19.39l-118.67-110.39a26.47 26.47 0 0 0 -18.04-7.1z" fill="#d2dae2"/><path d="m384.47 218.49h-291.72v169.13h291.72a26.49 26.49 0 0 0 26.53-26.48v-116.14a26.49 26.49 0 0 0 -26.53-26.51z" fill="#bac5ce"/><path d="m512 136.88a26.49 26.49 0 0 0 -8.44-19.39l-98.23-91.38c-.8.55-1.6 1.12-2.39 1.71v96.74a26.49 26.49 0 0 0 26.49 26.44h82.57z" fill="#bac5ce"/><path d="m509.35 125.35h-105.61a26.49 26.49 0 0 1 -26.48-26.48v-96.73a26.42 26.42 0 0 1 7.64 5l118.66 110.35a26.47 26.47 0 0 1 5.79 7.86z" fill="#808e9b"/><rect fill="#26de81" height="169.13" rx="26.48" width="385.26" y="192.8"/><g fill="#f1f2f6"><path d="m184.5 312.27a7.06 7.06 0 0 1 -7.06 7.06h-51.18a7.06 7.06 0 0 1 -7.06-7.06v-69.81a7.07 7.07 0 0 1 14.13 0v62.74h44.11a7.07 7.07 0 0 1 7.06 7.07z"/><path d="m344.74 236.76a7.08 7.08 0 0 0 -9.88 1.52l-19.86 27.13-19.89-27.13a7.06 7.06 0 1 0 -11.39 8.35l22.53 30.73-22.53 30.72a7.06 7.06 0 1 0 11.39 8.35l19.89-27.13 19.89 27.13a7.06 7.06 0 1 0 11.39-8.35l-22.52-30.72 22.52-30.73a7.06 7.06 0 0 0 -1.54-9.87z"/><path d="m100.05 236.76a7.07 7.07 0 0 0 -9.87 1.52l-19.89 27.13-19.89-27.13a7.06 7.06 0 1 0 -11.4 8.35l22.52 30.73-22.52 30.72a7.05 7.05 0 0 0 1.53 9.92 7 7 0 0 0 4.17 1.37 7.06 7.06 0 0 0 5.7-2.89l19.89-27.18 19.89 27.13a7.06 7.06 0 0 0 11.39-8.35l-22.52-30.72 22.52-30.73a7.05 7.05 0 0 0 -1.52-9.87z"/><path d="m248.12 272.87c-2.69-1-7-1.78-13.54-2.48h-.3l-.6-.08c-7.22-.77-9.49-1.46-10-1.65-5.34-2-8.78-5.4-8.78-8.72a5.15 5.15 0 0 1 .46-2.1c1.68-4 8.58-8.29 18.05-8.29s16.39 4.27 18.08 8.3a7.06 7.06 0 1 0 13-5.47c-4.25-10.14-16.75-17-31.1-17s-26.83 6.82-31.06 16.92a19.17 19.17 0 0 0 -1.58 7.6c0 9.43 6.9 17.84 18 22 2.65 1 6.92 1.76 13.43 2.45h.33l.57.08c7.27.77 9.57 1.47 10.1 1.67 5.31 2 8.75 5.39 8.75 8.7a5.24 5.24 0 0 1 -.46 2.09c-1.69 4-8.6 8.3-18.08 8.3s-16.37-4.27-18.05-8.3a7.06 7.06 0 0 0 -13 5.46c4.25 10.15 16.74 17 31.08 17s26.85-6.82 31.08-16.92a19.21 19.21 0 0 0 1.58-7.6c-.02-9.43-6.89-17.83-17.96-21.96z"/></g></svg>